<svg width="44" height="44" viewBox="0 0 44 44" fill="none" xmlns="http://www.w3.org/2000/svg">
<path d="M1.24292 40.7697C1.24275 37.5 1.24259 33.2508 1.24292 29.1345C1.24303 27.7129 1.34126 26.8238 2.49978 26C3.58677 25.227 5.54085 25.0405 6.87465 25.0405C17.9988 25.0405 27.4988 25.0405 37.4214 25.0405C38.8692 25.0405 40.3157 25.1656 41.4988 26C42.6443 26.8079 43.3035 27.7328 43.3035 29.1345C43.3035 33.6586 43.3035 39.5394 43.3035 40.7697C43.3035 42 42.1088 43 41.3038 43C40.4988 43 39.9988 43 39.3038 43C38.6088 43 37.344 42.5394 37.4214 40.7697C37.4988 39 37.4214 37 37.4214 34.2655C37.4214 31.7217 36.9988 30.6569 34.3009 30.6569C30.8846 30.6569 18 30.6702 10.3006 30.6702C7.67902 30.6702 7.10659 30.6702 7.10659 33.2508C7.10659 36.1207 7.10659 38.4143 7.10659 40.7697C7.10659 41.9583 5.99225 43 4.80366 43C4.00004 43 4.69625 43 3.5 43C2.43695 43 1.24297 41.8327 1.24292 40.7697Z" fill="#5A5A5A"/>
<circle cx="21.8037" cy="11.5" r="9" stroke="#5A5A5A" stroke-width="5"/>
</svg>
