<svg width="300" height="300" viewBox="0 0 300 300" fill="none" xmlns="http://www.w3.org/2000/svg">
<rect x="18" y="18" width="264" height="264" rx="132" stroke="#C1CFFF" stroke-width="36"/>
<path d="M296.906 180.309C290.992 208.973 276.822 235.281 256.141 255.991C235.46 276.701 209.172 290.909 180.517 296.863C151.861 302.817 122.09 300.258 94.8702 289.502C67.6509 278.745 44.1731 260.26 27.3296 236.325L56.7755 215.603C69.5759 233.793 87.4181 247.841 108.104 256.016C128.789 264.19 151.414 266.135 173.191 261.61C194.969 257.085 214.946 246.288 230.663 230.549C246.379 214.81 257.148 194.817 261.642 173.034L296.906 180.309Z" fill="white"/>
</svg>
