<svg width="457" height="457" viewBox="0 0 457 457" fill="none" xmlns="http://www.w3.org/2000/svg">
<g clip-path="url(#clip0_843_275)">
<path d="M433.467 81.51H23.081C10.334 81.51 0 91.844 0 104.591V130.865H456.548V104.591C456.548 91.844 446.214 81.51 433.467 81.51Z" fill="#676767"/>
<path d="M0 351.957C0 364.704 10.334 375.038 23.081 375.038H433.466C446.213 375.038 456.547 364.704 456.547 351.957V198.355H0V351.957ZM196.171 323.51H167.171C158.887 323.51 152.171 316.794 152.171 308.51C152.171 300.226 158.887 293.51 167.171 293.51H196.171C204.455 293.51 211.171 300.226 211.171 308.51C211.171 316.794 204.455 323.51 196.171 323.51ZM348.467 293.51H395.467C403.751 293.51 410.467 300.226 410.467 308.51C410.467 316.794 403.751 323.51 395.467 323.51H348.467C340.183 323.51 333.467 316.794 333.467 308.51C333.467 300.226 340.183 293.51 348.467 293.51ZM303.171 308.51C303.171 316.794 296.455 323.51 288.171 323.51H259.171C250.887 323.51 244.171 316.794 244.171 308.51C244.171 300.226 250.887 293.51 259.171 293.51H288.171C296.455 293.51 303.171 300.226 303.171 308.51ZM58.874 236.51H282.874C291.158 236.51 297.874 243.226 297.874 251.51C297.874 259.794 291.158 266.51 282.874 266.51H58.874C50.59 266.51 43.874 259.794 43.874 251.51C43.874 243.226 50.59 236.51 58.874 236.51ZM58.874 293.51H105.874C114.158 293.51 120.874 300.226 120.874 308.51C120.874 316.794 114.159 323.51 105.874 323.51H58.874C50.59 323.51 43.874 316.794 43.874 308.51C43.874 300.226 50.59 293.51 58.874 293.51Z" fill="#676767"/>
</g>
<defs>
<clipPath id="clip0_843_275">
<rect width="456.548" height="456.548" fill="white"/>
</clipPath>
</defs>
</svg>
