<svg width="474" height="474" viewBox="0 0 474 474" fill="none" xmlns="http://www.w3.org/2000/svg">
<g clip-path="url(#clip0_840_51)">
<path d="M236.829 473.658C367.626 473.658 473.658 367.626 473.658 236.829C473.658 106.032 367.626 0 236.829 0C106.032 0 0 106.032 0 236.829C0 367.626 106.032 473.658 236.829 473.658Z" fill="#344E5D"/>
<path d="M334.743 347.39C334.743 360.998 323.715 372.026 310.114 372.026H164.195C150.594 372.026 139.566 360.998 139.566 347.39L108.875 267.348C108.875 253.747 119.896 242.719 133.504 242.719H340.805C354.413 242.719 365.434 253.747 365.434 267.348L334.743 347.39Z" fill="#DEBA24"/>
<path d="M189.818 324.429C195.816 335.364 191.819 349.088 180.884 355.083C169.949 361.085 156.225 357.084 150.23 346.157L73.087 202.051C67.089 191.116 71.086 177.392 82.021 171.397C92.948 165.395 106.672 169.396 112.675 180.323L189.818 324.429Z" fill="#DEBA24"/>
<path d="M284.498 324.429C278.496 335.364 282.49 349.088 293.424 355.083C304.351 361.085 318.083 357.084 324.078 346.157L401.222 202.051C407.22 191.116 403.223 177.392 392.288 171.397C381.361 165.395 367.637 169.396 361.634 180.323L284.498 324.429Z" fill="#DEBA24"/>
<path d="M262.344 324.332C262.396 336.807 252.337 346.96 239.869 347.016C227.394 347.076 217.241 337.016 217.185 324.541L218.127 161.094C218.067 148.619 228.134 138.466 240.602 138.41C253.07 138.35 263.223 148.41 263.286 160.878L262.344 324.332Z" fill="#DEBA24"/>
<path d="M102.375 170.877C102.375 170.877 171.479 213.643 223.475 146.592L219.713 245.452L147.183 253.66L102.375 170.877Z" fill="#DEBA24"/>
<path d="M373.306 170.193C373.306 170.193 311.733 216.377 259.731 149.334L257 247.161L329.522 255.369L373.306 170.193Z" fill="#DEBA24"/>
<path d="M75.0159 199.934C92.2075 199.934 106.144 185.998 106.144 168.806C106.144 151.614 92.2075 137.678 75.0159 137.678C57.8244 137.678 43.8879 151.614 43.8879 168.806C43.8879 185.998 57.8244 199.934 75.0159 199.934Z" fill="#DEBA24"/>
<path d="M239.559 165.417C256.75 165.417 270.687 151.481 270.687 134.289C270.687 117.097 256.75 103.161 239.559 103.161C222.367 103.161 208.431 117.097 208.431 134.289C208.431 151.481 222.367 165.417 239.559 165.417Z" fill="#DEBA24"/>
<path d="M398.604 199.26C415.796 199.26 429.732 185.324 429.732 168.132C429.732 150.941 415.796 137.004 398.604 137.004C381.413 137.004 367.476 150.941 367.476 168.132C367.476 185.324 381.413 199.26 398.604 199.26Z" fill="#DEBA24"/>
<path d="M334.743 347.39C334.743 360.998 323.715 372.026 310.114 372.026H164.195C150.594 372.026 139.566 360.998 139.566 347.39C139.566 347.39 196.333 336.867 237.009 336.867C277.685 336.867 334.743 347.39 334.743 347.39Z" fill="#B8972F"/>
<g opacity="0.4">
<path d="M248.87 306.505C248.87 309.055 245.519 311.12 241.368 311.12C237.228 311.12 233.866 309.052 233.866 306.505V218.77C233.866 216.22 237.224 214.155 241.368 214.155C245.515 214.155 248.87 216.223 248.87 218.77V306.505Z" fill="#F6E568"/>
</g>
<g opacity="0.4">
<path d="M296.3 317.679C294.913 319.811 290.911 319.657 287.366 317.342C283.825 315.027 282.086 311.411 283.481 309.287L322.257 250.059C323.652 247.927 327.653 248.081 331.198 250.396C334.732 252.718 336.471 256.32 335.076 258.451L296.3 317.679Z" fill="#F6E568"/>
</g>
<g opacity="0.4">
<path d="M180.825 317.679C182.22 319.811 186.221 319.657 189.766 317.342C193.3 315.027 195.039 311.411 193.644 309.287L154.868 250.059C153.473 247.927 149.472 248.081 145.927 250.396C142.393 252.718 140.654 256.32 142.049 258.451L180.825 317.679Z" fill="#F6E568"/>
</g>
<g opacity="0.4">
<path d="M49.9391 176.042C44.4681 170.571 50.4741 155.422 55.9411 149.943C61.4201 144.479 74.6611 139.285 80.1321 144.756C85.5991 150.231 55.4101 181.505 49.9391 176.042Z" fill="#F6E568"/>
</g>
<g opacity="0.4">
<path d="M214.32 140.452C208.849 134.981 214.855 119.832 220.322 114.361C225.789 108.89 239.035 103.703 244.506 109.174C249.977 114.645 219.791 145.919 214.32 140.452Z" fill="#F6E568"/>
</g>
<g opacity="0.4">
<path d="M373.62 173.499C368.142 168.028 374.155 152.879 379.622 147.4C385.093 141.936 398.335 136.742 403.806 142.213C409.277 147.684 379.083 178.962 373.62 173.499Z" fill="#F6E568"/>
</g>
</g>
<defs>
<clipPath id="clip0_840_51">
<rect width="473.658" height="473.658" fill="white"/>
</clipPath>
</defs>
</svg>
