<svg width="989" height="879" viewBox="0 0 989 879" fill="none" xmlns="http://www.w3.org/2000/svg">
<path fill-rule="evenodd" clip-rule="evenodd" d="M35.7168 373.092C2.1838 392.33 -9.40384 435.11 9.83468 468.643L224.665 843.091C243.903 876.624 286.683 888.212 320.216 868.973L953.699 505.529C987.232 486.291 998.82 443.511 979.581 409.978L764.751 35.5295C745.512 1.99651 702.732 -9.59129 669.199 9.64742L35.7168 373.092ZM700.855 271.072L632.953 309.118C628.565 294.974 634.5 279.211 647.95 271.713L687.578 249.622L700.855 271.072ZM712.206 264.711L740.424 248.901C742.833 247.551 745.88 248.41 747.23 250.819L749.461 254.801C749.527 254.918 749.587 255.037 749.642 255.157C749.664 255.204 749.685 255.25 749.704 255.297L763.285 278.754L803.739 255.954L789.087 229.671C780.482 214.234 760.992 208.696 745.556 217.302L698.945 243.286L712.206 264.711ZM782.089 311.232L769.851 290.094L810.119 267.398L821.765 288.29L782.089 311.232ZM756.768 340.712L768.329 360.954L812.049 336.581C825.258 329.218 831.218 313.887 827.274 299.944L756.768 340.712ZM756.247 367.69L714.444 390.993C702.035 397.91 687.007 395.689 677.119 386.532L727.246 356.92C729.148 355.797 729.779 353.344 728.655 351.442L726.294 347.444C725.17 345.542 722.717 344.911 720.815 346.035L669.609 376.284L657.15 353.935L707.479 325.627C709.301 324.602 710.01 322.363 709.164 320.494C709.125 320.387 709.076 320.281 709.017 320.178L708.325 318.972L707.067 316.735C706.992 316.601 706.909 316.473 706.821 316.351L692.96 292.19L739.033 266.375L769.289 318.633L740.96 335.014C739.526 335.843 739.035 337.678 739.864 339.113L743.291 345.039C743.342 345.127 743.396 345.21 743.454 345.291L756.247 367.69ZM651.33 343.496L692.877 320.127L680.768 299.021L639.445 322.175L651.33 343.496ZM393 396C393 449.572 350.467 493 298 493C245.533 493 203 449.572 203 396C203 342.428 245.533 299 298 299C350.467 299 393 342.428 393 396ZM227.391 548.759C241.843 540.96 265.335 518.89 262.917 515.445C261.66 513.653 257.288 511.946 252.035 509.894C247.19 508.001 241.593 505.815 237 503C225.742 496.1 219.847 491.327 210.5 482C202.448 473.965 197.877 469.24 192 459.5C185.274 448.354 179.741 428.5 179.741 428.5C179.741 428.5 175.5 403.5 175.5 396C175.5 392.496 176.701 386.481 177.852 380.716C179.164 374.142 180.412 367.891 179.741 366.057C178.481 362.614 147.489 371.497 133.533 380.187C119.578 388.878 108.055 401.098 100.079 415.666C92.1021 430.234 87.942 446.658 88.0006 463.348C88.0592 480.038 92.3345 496.43 100.413 510.94C108.492 525.449 120.1 537.585 134.116 546.173C148.132 554.761 164.081 559.511 180.421 559.964C196.761 560.417 212.94 556.558 227.391 548.759Z" fill="#5A5A5A"/>
</svg>
