<svg width="512" height="512" viewBox="0 0 512 512" fill="none" xmlns="http://www.w3.org/2000/svg">
<g clip-path="url(#clip0_841_239)">
<path d="M411.826 66.783H267.13V100.174H411.826V66.783Z" fill="black"/>
<path d="M411.826 133.565H267.13V166.956H411.826V133.565Z" fill="black"/>
<path d="M478.609 166.957V0H200.348V166.957H166.957L166.956 478.617H200.348V512H478.609V478.616H511.999L512 166.957H478.609ZM267.13 434.087H233.739V400.696H267.13V434.087ZM267.13 367.304H233.739V333.913H267.13V367.304ZM267.13 300.522H233.739V267.13H267.13V300.522ZM356.174 434.087H322.783V400.696H356.174V434.087ZM356.174 367.304H322.783V333.913H356.174V367.304ZM356.174 300.522H322.783V267.13H356.174V300.522ZM445.217 434.087H411.826V400.696H445.217V434.087ZM445.217 367.304H411.826V333.913H445.217V367.304ZM445.217 300.522H411.826V267.13H445.217V300.522ZM445.217 166.957V200.348H233.739V33.391H445.217V166.957Z" fill="black"/>
<path d="M100.174 200.348V166.957H33.391V200.348H0V478.609H33.391V512H100.174V478.609H133.565V200.348H100.174Z" fill="black"/>
</g>
<defs>
<clipPath id="clip0_841_239">
<rect width="512" height="512" fill="white"/>
</clipPath>
</defs>
</svg>
