<svg width="220" height="220" viewBox="0 0 220 220" fill="none" xmlns="http://www.w3.org/2000/svg">
<g clip-path="url(#clip0_840_93)">
<path d="M218.575 96.143L190.481 29.66C189.308 26.884 186.586 25.079 183.572 25.079H35.5939C32.5799 25.079 29.8589 26.884 28.6849 29.66L0.590934 96.143C-0.388066 98.458 -0.140066 101.111 1.24893 103.206C2.63893 105.302 4.98593 106.561 7.49993 106.561H16.6339V186.587C16.6339 190.73 19.9919 194.087 24.1339 194.087H195.033C199.175 194.087 202.533 190.73 202.533 186.587V106.561H211.666C214.18 106.561 216.527 105.301 217.917 103.206C219.307 101.111 219.554 98.458 218.575 96.143ZM153.034 166.78V119.698H178.931V166.78H153.034ZM41.8789 166.489V119.988H67.5909V166.489H41.8789ZM82.5919 119.988H108.305V166.489H82.5919V119.988Z" fill="black"/>
</g>
<defs>
<clipPath id="clip0_840_93">
<rect width="219.167" height="219.167" fill="white"/>
</clipPath>
</defs>
</svg>
