<svg width="512" height="512" viewBox="0 0 512 512" fill="none" xmlns="http://www.w3.org/2000/svg">
<g clip-path="url(#clip0_841_177)">
<path d="M256 512C397.385 512 512 397.385 512 256C512 114.615 397.385 0 256 0C114.615 0 0 114.615 0 256C0 397.385 114.615 512 256 512Z" fill="#523852"/>
<path d="M503.781 191.457L425.429 130.879V158.477H387.429V273.477H127.429V301.477H82.429L81.929 364.645L287.738 509.512L287.41 510.012C413.965 494.516 512 386.742 512 256C512 233.703 509.137 212.078 503.781 191.457Z" fill="#220B22"/>
<path d="M433.953 354.891C433.953 362.45 428.422 368.633 421.68 368.633H90.492C83.758 368.633 78.226 362.449 78.226 354.891V144.18C78.226 136.621 83.757 130.438 90.492 130.438H421.68C428.422 130.438 433.953 136.622 433.953 144.18V354.891V354.891Z" fill="#26A9E0"/>
<path d="M268.555 280.211C262.469 285.02 252.469 285.078 246.328 280.348L78.2269 150.609V178.093L246.329 307.823C252.47 312.561 262.47 312.503 268.556 307.694L433.954 177.108V149.62L268.555 280.211Z" fill="#354C59"/>
<path d="M421.68 130.438H90.492C83.758 130.438 78.226 136.622 78.226 144.18V150.61L246.328 280.348C252.469 285.078 262.469 285.02 268.555 280.211L433.953 149.621V144.18C433.953 136.621 428.422 130.438 421.68 130.438Z" fill="#EBEBEB"/>
</g>
<defs>
<clipPath id="clip0_841_177">
<rect width="512" height="512" fill="white"/>
</clipPath>
</defs>
</svg>
