<svg width="330" height="330" viewBox="0 0 330 330" fill="none" xmlns="http://www.w3.org/2000/svg">
<path d="M65 330H265C273.284 330 280 323.284 280 315V145C280 136.716 273.284 130 265 130H250V85C250 38.131 211.869 0 165 0C118.131 0 80 38.131 80 85V130H65C56.716 130 50 136.716 50 145V315C50 323.284 56.716 330 65 330ZM207.481 219.356L164.981 261.856C162.052 264.785 158.213 266.25 154.375 266.25C150.537 266.25 146.697 264.785 143.769 261.856L122.519 240.606C116.661 234.748 116.661 225.252 122.519 219.393C128.376 213.535 137.874 213.535 143.732 219.393L154.376 230.036L186.27 198.143C192.127 192.285 201.625 192.285 207.483 198.143C213.34 204.002 213.34 213.498 207.481 219.356ZM110 85C110 54.673 134.673 30 165 30C195.327 30 220 54.673 220 85V130H110V85Z" fill="black"/>
</svg>
