<svg width="40" height="37" viewBox="0 0 40 37" fill="none" xmlns="http://www.w3.org/2000/svg">
<path d="M25.5875 -2.78005e-05C29 -1.35303e-05 33.5 -3.84101e-05 35.3 -2.78005e-05C36.5471 -2.04495e-05 37.7229 0.565534 38.5 1.76188C39.1645 2.78484 39 4.84521 39 4.84521V33.4762C39 33.4762 38.7483 35.249 38 36C37.2064 36.7965 36.4244 37 35.3 37C31.5 37 29 37 25.125 37C24.1273 37 23.5948 36.1831 23.275 35.2381C23.0544 34.5863 23.0544 34.1279 23.275 33.4762C23.5948 32.5311 24.1273 31.7143 25.125 31.7143C28.5 31.7143 34.375 31.7143 34.375 31.7143V5.28569C34.375 5.28569 27.0771 5.43119 25.125 5.28569C24.13 5.21153 23.5948 4.46882 23.275 3.52378C23.0544 2.87203 23.0462 2.41079 23.275 1.76188C23.6525 0.691135 24.4521 -3.25481e-05 25.5875 -2.78005e-05Z" fill="#5A5A5A"/>
<rect y="15" width="30" height="6" rx="3" fill="#5A5A5A"/>
<path d="M15.2097 29.6829C13.9894 28.4625 13.9894 26.4838 15.2097 25.2634L24.2254 16.2478C25.4457 15.0274 27.4244 15.0274 28.6448 16.2478C29.8652 17.4682 29.8652 19.4469 28.6448 20.6672L19.6292 29.6829C18.4088 30.9032 16.4301 30.9032 15.2097 29.6829Z" fill="#5A5A5A"/>
<rect x="26.4731" y="21.7158" width="19.054" height="6" rx="3" transform="rotate(-135 26.4731 21.7158)" fill="#5A5A5A"/>
</svg>
