<svg width="30" height="30" viewBox="0 0 30 30" fill="none" xmlns="http://www.w3.org/2000/svg">
<path d="M27.7222 18.4054C28.3647 17.9599 28.9295 17.5174 29.3682 17.1545C29.0118 19.5239 28.072 21.7753 26.6246 23.7023C24.9249 25.9653 22.5996 27.6823 19.9351 28.6414C17.2706 29.6006 14.3834 29.76 11.6293 29.1001C8.8752 28.4402 6.37458 26.9898 4.43553 24.9276C2.49649 22.8655 1.20372 20.2818 0.71646 17.4948C0.229197 14.7078 0.56871 11.8393 1.69319 9.2427C2.81767 6.64608 4.67801 4.43476 7.04505 2.88127C9.07307 1.55028 11.3971 0.752014 13.8025 0.550646C13.3941 1.00508 12.8824 1.60755 12.3657 2.30214C11.2252 3.83516 9.98557 5.9142 9.89528 7.8717C9.81075 9.70437 9.97095 11.2903 10.4865 12.7556C11.003 14.2238 11.8654 15.5401 13.1421 16.8491C15.7082 19.4802 18.7031 20.7444 22.345 20.6313C24.199 20.5738 26.2215 19.4461 27.7222 18.4054Z" fill="#C3BDBD" stroke="#6D6D6D"/>
<path d="M17.5 5L17.8368 6.03647H18.9266L18.0449 6.67705L18.3817 7.71353L17.5 7.07295L16.6183 7.71353L16.9551 6.67705L16.0734 6.03647H17.1632L17.5 5Z" fill="#5A5A5A"/>
<path d="M25 8L25.449 9.38197H26.9021L25.7265 10.2361L26.1756 11.618L25 10.7639L23.8244 11.618L24.2735 10.2361L23.0979 9.38197H24.551L25 8Z" fill="#5A5A5A"/>
<path d="M18 10L18.8981 12.7639H21.8042L19.4531 14.4721L20.3511 17.2361L18 15.5279L15.6489 17.2361L16.5469 14.4721L14.1958 12.7639H17.1019L18 10Z" fill="#5A5A5A"/>
</svg>
