<svg width="301" height="301" viewBox="0 0 301 301" fill="none" xmlns="http://www.w3.org/2000/svg">
<g clip-path="url(#clip0_836_38)">
<path d="M150 -8.77222e-09C67.159 -3.92749e-09 0.00195313 67.162 0.00195313 150C0.00195314 232.838 67.159 300.005 150 300.005C232.843 300.005 300.003 232.84 300.003 150C300.003 67.16 232.843 -1.36171e-08 150 -8.77222e-09ZM105.755 78.641L142.221 78.641L142.221 102.451L82.617 102.451L105.755 78.641ZM217.169 226.868L82.838 226.868L82.838 226.867L82.838 118.013L217.17 118.013L217.17 226.868L217.169 226.868ZM157.786 102.451L157.786 78.641L193.563 78.641L217.219 102.451L157.786 102.451Z" fill="black"/>
<path d="M144.119 205.628C144.119 205.631 144.122 205.633 144.124 205.636C145.644 207.156 147.636 207.916 149.628 207.916C151.62 207.916 153.612 207.156 155.132 205.636L179.953 180.818C182.993 177.781 182.993 172.856 179.953 169.816C176.917 166.776 171.989 166.776 168.949 169.815L157.41 181.351L157.41 144.74C157.41 140.442 153.924 136.959 149.629 136.959C145.334 136.959 141.848 140.442 141.848 144.74L141.848 181.354L130.306 169.815C127.266 166.775 122.341 166.775 119.301 169.815C116.261 172.855 116.264 177.78 119.301 180.817L144.119 205.628Z" fill="black"/>
</g>
<defs>
<clipPath id="clip0_836_38">
<rect width="300.005" height="300.005" fill="white"/>
</clipPath>
</defs>
</svg>
