<svg width="47" height="47" viewBox="0 0 47 47" fill="none" xmlns="http://www.w3.org/2000/svg">
<path d="M37.076 19.748C36.252 19.748 35.582 20.42 35.582 21.247V22.707H38.573V21.247C38.573 20.42 37.9 19.748 37.076 19.748Z" fill="black"/>
<path d="M41.227 12.635H5.773C2.6 12.635 0 15.237 0 18.41V28.59C0 31.768 2.6 34.365 5.773 34.365H41.227C44.4 34.365 47 31.768 47 28.59V18.41C47 15.237 44.4 12.635 41.227 12.635ZM12.56 25.077L13.945 26.585L11.546 28.385L10.562 26.585C10.417 26.328 10.19 25.824 9.871 25.077C9.522 25.898 9.29 26.398 9.175 26.585L8.177 28.385L5.711 26.585L7.202 25.077C7.622 24.662 8.029 24.306 8.431 24.014C8.021 23.977 7.482 23.901 6.817 23.776L4.752 23.44L5.71 20.628L7.562 21.47C7.757 21.558 8.242 21.835 9.014 22.294C8.849 21.547 8.743 20.992 8.695 20.628L8.432 18.615H11.373L11.135 20.628C11.083 21.118 10.969 21.673 10.8 22.294C11.139 22.124 11.363 22.011 11.469 21.949C11.841 21.742 12.128 21.599 12.321 21.507L14.174 20.628L15.092 23.44L13.043 23.868C12.668 23.94 12.112 23.987 11.373 24.014C11.874 24.406 12.266 24.758 12.56 25.077ZM26.137 25.077L27.524 26.585L25.125 28.384L24.142 26.585C23.997 26.328 23.77 25.824 23.452 25.077C23.102 25.898 22.872 26.398 22.757 26.585L21.757 28.384L19.292 26.585L20.783 25.077C21.203 24.662 21.609 24.306 22.012 24.014C21.604 23.977 21.063 23.901 20.398 23.776L18.332 23.44L19.291 20.628L21.144 21.47C21.337 21.558 21.824 21.835 22.595 22.294C22.426 21.547 22.32 20.992 22.275 20.628L22.011 18.617H24.953L24.714 20.628C24.66 21.118 24.548 21.673 24.381 22.294C24.718 22.124 24.942 22.011 25.049 21.949C25.419 21.742 25.707 21.599 25.901 21.507L27.755 20.628L28.674 23.44L26.623 23.868C26.248 23.94 25.694 23.987 24.954 24.014C25.451 24.406 25.844 24.758 26.137 25.077ZM41.35 27.625C41.35 28.244 40.843 28.75 40.225 28.75H33.93C33.311 28.75 32.805 28.244 32.805 27.625V23.831C32.805 23.212 33.311 22.706 33.93 22.706H34.082V21.246C34.082 19.593 35.425 18.248 37.076 18.248C38.728 18.248 40.072 19.592 40.072 21.246V22.706H40.224C40.841 22.706 41.349 23.212 41.349 23.831V27.625H41.35Z" fill="black"/>
</svg>
