<svg width="54" height="54" viewBox="0 0 54 54" fill="none" xmlns="http://www.w3.org/2000/svg">
<g clip-path="url(#clip0_841_207)">
<path d="M53.364 40.908C51.356 37.112 44.383 32.996 44.076 32.816C43.18 32.306 42.245 32.036 41.37 32.036C40.069 32.036 39.004 32.632 38.359 33.716C37.339 34.936 36.074 36.362 35.767 36.583C33.391 38.195 31.531 38.012 29.473 35.954L17.987 24.467C15.942 22.422 15.754 20.539 17.355 18.176C17.579 17.867 19.005 16.601 20.225 15.58C21.003 15.117 21.537 14.429 21.771 13.585C22.082 12.462 21.853 11.141 21.119 9.85403C20.946 9.55803 16.828 2.58403 13.034 0.577028C12.326 0.202028 11.528 0.00402832 10.728 0.00402832C9.41003 0.00402832 8.17003 0.518028 7.23803 1.44903L4.70003 3.98603C0.686029 7.99903 -0.766971 12.548 0.379029 17.506C1.33503 21.638 4.12103 26.035 8.66103 30.574L23.366 45.279C29.112 51.025 34.59 53.939 39.648 53.939C43.369 53.939 46.836 52.358 49.954 49.241L52.491 46.704C54.033 45.163 54.383 42.833 53.364 40.908Z" fill="black"/>
<path d="M29.56 24.9261C29.682 24.9771 29.812 25.0031 29.942 25.0031H41.942C42.494 25.0031 42.942 24.5561 42.942 24.0031C42.942 23.4501 42.494 23.0031 41.942 23.0031H32.356L47.649 7.71006C48.04 7.31906 48.04 6.68706 47.649 6.29606C47.258 5.90506 46.626 5.90506 46.235 6.29606L30.942 21.5891V12.0031C30.942 11.4501 30.494 11.0031 29.942 11.0031C29.39 11.0031 28.942 11.4501 28.942 12.0031V24.0031C28.942 24.1331 28.969 24.2631 29.019 24.3851C29.121 24.6301 29.316 24.8251 29.56 24.9261Z" fill="black"/>
</g>
<defs>
<clipPath id="clip0_841_207">
<rect width="53.942" height="53.942" fill="white"/>
</clipPath>
</defs>
</svg>
