<svg width="30" height="30" viewBox="0 0 30 30" fill="none" xmlns="http://www.w3.org/2000/svg">
<ellipse cx="15" cy="15.056" rx="9.375" ry="9.33998" fill="#EDCB19"/>
    <path d="M21.3474 1.42452L20.5177 5.83284L17.9302 4.34453L21.3474 1.42452Z" fill="#EDCB19"/>
    <path d="M25.6465 4.45061L23.6999 8.49479L21.5872 6.38999L25.6465 4.45061Z" fill="#EDCB19"/>
    <path d="M28.736 8.78568L25.8051 12.1901L24.3112 9.61226L28.736 8.78568Z" fill="#EDCB19"/>
    <path d="M30 15.0374L25.7531 13.5652V16.5095L30 15.0374Z" fill="#EDCB19"/>
    <path d="M15.0001 0L13.5062 4.23101H16.494L15.0001 0Z" fill="#EDCB19"/>
    <path d="M8.65259 1.3498L9.48228 5.75812L12.0698 4.26981L8.65259 1.3498Z" fill="#EDCB19"/>
    <path d="M4.35348 4.37589L6.30013 8.42006L8.41282 6.31527L4.35348 4.37589Z" fill="#EDCB19"/>
    <path d="M1.26396 8.71097L4.19492 12.1154L5.68881 9.53756L1.26396 8.71097Z" fill="#EDCB19"/>
    <path d="M15.0001 30L13.5062 25.769H16.494L15.0001 30Z" fill="#EDCB19"/>
    <path d="M8.65259 28.6502L9.48228 24.2419L12.0698 25.7302L8.65259 28.6502Z" fill="#EDCB19"/>
    <path d="M4.35348 25.6241L6.30013 21.5799L8.41282 23.6847L4.35348 25.6241Z" fill="#EDCB19"/>
    <path d="M1.26396 21.289L4.19492 17.8846L5.68881 20.4624L1.26396 21.289Z" fill="#EDCB19"/>
    <path d="M0 15.0374L4.275 16.5095L4.275 13.5652L0 15.0374Z" fill="#EDCB19"/>
    <path d="M21.3474 28.6876L20.5177 24.2792L17.9302 25.7675L21.3474 28.6876Z" fill="#EDCB19"/>
    <path d="M25.6465 25.6615L23.6999 21.6173L21.5872 23.7221L25.6465 25.6615Z" fill="#EDCB19"/>
    <path d="M28.736 21.3264L25.8051 17.922L24.3112 20.4998L28.736 21.3264Z" fill="#EDCB19"/>
</svg>
