<svg width="60" height="60" viewBox="0 0 60 60" fill="none" xmlns="http://www.w3.org/2000/svg">
<g clip-path="url(#clip0_39_10)">
<path d="M30 5C43.785 5 55 16.215 55 30C55 43.785 43.785 55 30 55C16.215 55 5 43.785 5 30C5 16.215 16.215 5 30 5ZM30 0C13.4325 0 0 13.4325 0 30C0 46.5675 13.4325 60 30 60C46.5675 60 60 46.5675 60 30C60 13.4325 46.5675 0 30 0ZM25 25H20V30H25V45H32.5V30H37.05L37.5 25H32.5V22.9175C32.5 21.7225 32.74 21.25 33.895 21.25H37.5V15H31.49C26.995 15 25 16.98 25 20.77V25Z" fill="#26A3E9"/>
</g>
<defs>
<clipPath id="clip0_39_10">
<rect width="60" height="60" fill="white"/>
</clipPath>
</defs>
</svg>
