<svg width="60" height="61" viewBox="0 0 60 61" fill="none" xmlns="http://www.w3.org/2000/svg">
<g clip-path="url(#clip0_39_45)">
<path d="M30 12C19.5088 12 11 20.2834 11 30.5C11 38.6739 16.4435 45.6083 23.9944 48.055C24.9428 48.2261 25.25 47.6526 25.25 47.1654V43.7213C19.9648 44.8406 18.8644 41.5383 18.8644 41.5383C17.9999 39.4 16.7538 38.8312 16.7538 38.8312C15.0296 37.6826 16.8853 37.7073 16.8853 37.7073C18.7932 37.8368 19.797 39.6143 19.797 39.6143C21.4912 42.4418 24.2414 41.6247 25.326 41.1514C25.4954 39.9566 25.9878 39.1395 26.5325 38.6785C22.3129 38.2083 17.8764 36.622 17.8764 29.5349C17.8764 27.5138 18.619 25.8642 19.8334 24.5692C19.6371 24.1021 18.9863 22.2197 20.0187 19.6729C20.0187 19.6729 21.6147 19.1765 25.2452 21.5691C26.7605 21.159 28.385 20.954 30 20.9463C31.615 20.954 33.2411 21.159 34.7595 21.5691C38.3869 19.1765 39.9797 19.6729 39.9797 19.6729C41.0137 22.2213 40.3629 24.1036 40.1666 24.5692C41.3857 25.8642 42.122 27.5153 42.122 29.5349C42.122 36.6405 37.6776 38.2053 33.4469 38.6631C34.1278 39.2366 34.75 40.362 34.75 42.0887V47.1654C34.75 47.6572 35.054 48.2353 36.0182 48.0534C43.5628 45.6037 49 38.6708 49 30.5C49 20.2834 40.4928 12 30 12Z" fill="#26A3E9"/>
</g>
<circle cx="30" cy="30.6887" r="27.5" stroke="#26A3E9" stroke-width="5"/>
<defs>
<clipPath id="clip0_39_45">
<rect width="38" height="37" fill="white" transform="translate(11 12)"/>
</clipPath>
</defs>
</svg>
