<svg width="60" height="60" viewBox="0 0 60 60" fill="none" xmlns="http://www.w3.org/2000/svg">
<circle cx="30" cy="30" r="27.5" stroke="#26A3E9" stroke-width="5"/>
<path d="M11 21.5262C11 20.2069 12.0695 19.1373 13.3889 19.1373C14.7082 19.1373 15.7778 20.2069 15.7778 21.5262V43C13.1391 43 11 40.8609 11 38.2222V21.5262Z" fill="#26A3E9"/>
<path d="M43.4445 21.4151C43.4445 20.1571 44.4643 19.1373 45.7222 19.1373C46.9802 19.1373 48 20.1571 48 21.4151V38.4444C48 40.9604 45.9604 43 43.4445 43V21.4151Z" fill="#26A3E9"/>
<rect width="4.22425" height="21.2559" transform="matrix(0.647661 -0.761928 0.849022 0.528358 11.818 22.6628)" fill="#26A3E9"/>
<rect width="4.47776" height="20.8318" transform="matrix(0.646274 0.763106 -0.849894 0.526954 44.6998 19.4789)" fill="#26A3E9"/>
<path d="M29.6667 28.9296L14.1744 19.2324L45.1589 19.2324L29.6667 28.9296Z" fill="white"/>
<path d="M29.8334 33.8732L43.4445 25.4595V43L29.8334 33.8732Z" fill="#E0DEDE"/>
<path d="M29.8334 33.8732L43.4445 25.4595V43L29.8334 33.8732Z" fill="#E0DEDE"/>
<path d="M29.8334 33.8732L15.7778 43L15.7778 25.1267L29.8334 33.8732Z" fill="#E0DEDE"/>
<path d="M29.8334 33.8732L15.7778 43L15.7778 25.1267L29.8334 33.8732Z" fill="#E0DEDE"/>
<path d="M29.8334 33.8732L43.4445 43H15.7778L29.8334 33.8732Z" fill="white"/>
</svg>
