<svg width="91" height="85" viewBox="0 0 91 85" fill="none" xmlns="http://www.w3.org/2000/svg">
<circle cx="44" cy="47" r="38" fill="white"/>
<circle cx="44" cy="47" r="35" fill="#26A3E9"/>
<g filter="url(#filter0_d_15_23)">
<path d="M15.5693 60.8081L32.8179 26.4575L24.9443 17.4854H67.8643L61.2358 26.7871L76.6899 60.7349L86.3213 70H47.8691L55.8525 60.8081L54.2778 56.9629H30.1079L28.3867 60.8081L38.897 70H4.80273L15.5693 60.8081ZM51.2017 49.3091L42.8154 28.6548L33.5503 49.3091H51.2017Z" fill="white"/>
<path d="M15.5693 60.8081L16.2186 61.5686C16.3201 61.482 16.4032 61.376 16.463 61.2568L15.5693 60.8081ZM32.8179 26.4575L33.7115 26.9063C33.8943 26.5424 33.8381 26.104 33.5695 25.7979L32.8179 26.4575ZM24.9443 17.4854V16.4854C24.5517 16.4854 24.1954 16.7151 24.0334 17.0728C23.8714 17.4305 23.9337 17.8498 24.1927 18.1449L24.9443 17.4854ZM67.8643 17.4854L68.6786 18.0657C68.8959 17.7608 68.9247 17.3601 68.7532 17.0273C68.5817 16.6945 68.2386 16.4854 67.8643 16.4854V17.4854ZM61.2358 26.7871L60.4215 26.2068C60.2143 26.4975 60.1778 26.8766 60.3257 27.2014L61.2358 26.7871ZM76.6899 60.7349L75.7798 61.1492C75.8321 61.2641 75.9057 61.368 75.9967 61.4555L76.6899 60.7349ZM86.3213 70V71C86.7293 71 87.0964 70.7521 87.2488 70.3737C87.4013 69.9953 87.3086 69.5622 87.0146 69.2793L86.3213 70ZM47.8691 70L47.1141 69.3443C46.8573 69.64 46.7968 70.0585 46.9593 70.4149C47.1218 70.7713 47.4774 71 47.8691 71V70ZM55.8525 60.8081L56.6075 61.4638C56.8551 61.1788 56.921 60.7785 56.7779 60.4291L55.8525 60.8081ZM54.2778 56.9629L55.2032 56.5839C55.0494 56.2083 54.6838 55.9629 54.2778 55.9629V56.9629ZM30.1079 56.9629V55.9629C29.7137 55.9629 29.3562 56.1945 29.1952 56.5543L30.1079 56.9629ZM28.3867 60.8081L27.474 60.3995C27.2945 60.8005 27.3977 61.2716 27.7284 61.5608L28.3867 60.8081ZM38.897 70V71C39.3136 71 39.6866 70.7417 39.8331 70.3516C39.9796 69.9616 39.8689 69.5216 39.5553 69.2473L38.897 70ZM4.80273 70L4.15344 69.2395C3.8349 69.5114 3.71958 69.9531 3.86451 70.346C4.00944 70.739 4.3839 71 4.80273 71V70ZM51.2017 49.3091V50.3091C51.5344 50.3091 51.8453 50.1436 52.0312 49.8676C52.217 49.5915 52.2534 49.2412 52.1282 48.9329L51.2017 49.3091ZM42.8154 28.6548L43.742 28.2786C43.5913 27.9075 43.2338 27.6622 42.8334 27.6549C42.433 27.6477 42.0669 27.8801 41.903 28.2455L42.8154 28.6548ZM33.5503 49.3091L32.6379 48.8998C32.4991 49.2092 32.5266 49.5679 32.7109 49.8526C32.8952 50.1372 33.2112 50.3091 33.5503 50.3091V49.3091ZM16.463 61.2568L33.7115 26.9063L31.9242 26.0088L14.6757 60.3594L16.463 61.2568ZM33.5695 25.7979L25.696 16.8258L24.1927 18.1449L32.0662 27.1171L33.5695 25.7979ZM24.9443 18.4854H67.8643V16.4854H24.9443V18.4854ZM67.0499 16.905L60.4215 26.2068L62.0502 27.3674L68.6786 18.0657L67.0499 16.905ZM60.3257 27.2014L75.7798 61.1492L77.6001 60.3205L62.146 26.3728L60.3257 27.2014ZM75.9967 61.4555L85.628 70.7207L87.0146 69.2793L77.3832 60.0142L75.9967 61.4555ZM86.3213 69H47.8691V71H86.3213V69ZM48.6241 70.6557L56.6075 61.4638L55.0975 60.1524L47.1141 69.3443L48.6241 70.6557ZM56.7779 60.4291L55.2032 56.5839L53.3524 57.3419L54.9271 61.1871L56.7779 60.4291ZM54.2778 55.9629H30.1079V57.9629H54.2778V55.9629ZM29.1952 56.5543L27.474 60.3995L29.2995 61.2167L31.0206 57.3714L29.1952 56.5543ZM27.7284 61.5608L38.2387 70.7527L39.5553 69.2473L29.045 60.0554L27.7284 61.5608ZM38.897 69H4.80273V71H38.897V69ZM5.45203 70.7605L16.2186 61.5686L14.92 60.0476L4.15344 69.2395L5.45203 70.7605ZM52.1282 48.9329L43.742 28.2786L41.8889 29.031L50.2751 49.6853L52.1282 48.9329ZM41.903 28.2455L32.6379 48.8998L34.4627 49.7184L43.7278 29.0641L41.903 28.2455ZM33.5503 50.3091H51.2017V48.3091H33.5503V50.3091Z" fill="white"/>
</g>
<defs>
<filter id="filter0_d_15_23" x="0.802734" y="17.4854" width="89.5186" height="60.5146" filterUnits="userSpaceOnUse" color-interpolation-filters="sRGB">
<feFlood flood-opacity="0" result="BackgroundImageFix"/>
<feColorMatrix in="SourceAlpha" type="matrix" values="0 0 0 0 0 0 0 0 0 0 0 0 0 0 0 0 0 0 127 0" result="hardAlpha"/>
<feOffset dy="4"/>
<feGaussianBlur stdDeviation="2"/>
<feComposite in2="hardAlpha" operator="out"/>
<feColorMatrix type="matrix" values="0 0 0 0 0 0 0 0 0 0 0 0 0 0 0 0 0 0 0.25 0"/>
<feBlend mode="normal" in2="BackgroundImageFix" result="effect1_dropShadow_15_23"/>
<feBlend mode="normal" in="SourceGraphic" in2="effect1_dropShadow_15_23" result="shape"/>
</filter>
</defs>
</svg>
